<svg width="182" height="84" viewBox="0 0 182 84" fill="none" xmlns="http://www.w3.org/2000/svg">
<g clip-path="url(#clip0_1237_2936)">
<path d="M31.274 49.3532C29.8461 49.3532 28.5099 48.6616 27.5929 47.448C26.676 48.6616 25.3398 49.3532 23.9119 49.3532C21.3051 49.3532 19.1698 47.0304 19.1436 44.1727V43.5202C19.1436 42.92 19.6283 42.4371 20.2309 42.4371C20.8335 42.4371 21.3313 42.933 21.3313 43.5202V44.1205C21.3313 45.8038 22.484 47.174 23.9119 47.174C25.3398 47.174 26.4926 45.8038 26.4926 44.1205V39.475C26.4926 38.8747 26.9904 38.3919 27.5798 38.3919C28.1693 38.3919 28.6802 38.8878 28.6802 39.475V44.1205C28.6802 45.8038 29.833 47.174 31.2609 47.174C32.6887 47.174 33.8415 45.8038 33.8415 44.1205V39.475C33.8415 38.8747 34.3262 38.3919 34.9288 38.3919C35.5314 38.3919 36.0161 38.8878 36.0161 39.475V44.1205C36.0161 47.0044 33.8808 49.3532 31.2478 49.3532M18.2135 48.8704C18.0956 48.8704 17.9646 48.8443 17.8336 48.7921C15.9735 47.9439 14.7552 46.0909 14.7421 44.0683V35.3123C14.7421 34.712 15.2399 34.2162 15.8425 34.2162C16.4451 34.2162 16.9429 34.712 16.9429 35.3123C16.9429 35.3123 16.9429 44.003 16.9429 44.0291C16.9429 45.1253 17.5454 46.1431 18.5017 46.6781C18.541 46.7042 18.5934 46.7303 18.6458 46.7695C19.1305 47.0435 19.327 47.3306 19.327 47.7612C19.327 48.3745 18.8292 48.8704 18.2135 48.8704ZM18.2397 38.9008C18.8554 38.6529 19.4056 38.5876 19.9951 38.5876C22.8901 38.5876 25.2481 40.9365 25.2481 43.8204C25.2481 44.4337 25.1302 45.06 24.9075 45.6603C24.711 46.0387 24.3442 46.2736 23.925 46.2736C23.6237 46.2736 23.3486 46.1562 23.139 45.9474C22.9294 45.7386 22.8246 45.4646 22.8246 45.1775C22.8246 45.0209 22.8639 44.8904 22.9163 44.7468C22.9163 44.7468 22.9687 44.5511 22.9818 44.512C23.0342 44.2901 23.0604 44.0552 23.0604 43.8334C23.0604 42.1501 21.685 40.793 20.0082 40.793C19.7855 40.793 19.5628 40.8191 19.3401 40.8712C19.2746 40.8712 19.2091 40.8973 19.1305 40.9234C18.3576 41.1192 17.9384 40.7669 17.755 40.3101C17.5716 39.8795 17.6633 39.2271 18.2659 38.9139M25.0647 27C16.7464 27 10 33.7203 10 42.0065C10 50.2927 16.7464 57.0131 25.0647 57.0131C33.383 57.0131 40.1294 50.2927 40.1294 42.0065C40.1294 33.7203 33.383 27 25.0647 27Z" fill="#7B7B7B"/>
<path d="M58.076 39.9317C58.076 36.9695 55.9408 34.8034 53.0195 34.8034C50.0983 34.8034 47.9368 37.0087 47.9368 39.9317C47.9368 42.8547 50.1114 45.06 53.0195 45.06C55.9277 45.06 58.076 42.8938 58.076 39.9317ZM53.085 33.7594C56.6481 33.7594 59.1764 36.4084 59.1764 39.9317C59.1764 43.4549 56.6481 46.1039 53.085 46.1039C50.8712 46.1039 49.011 45.0339 47.9499 43.3636L47.7796 45.869H46.915V29.7925H48.0023V36.4215C49.0765 34.7903 50.9105 33.7594 53.085 33.7594Z" fill="#7B7B7B"/>
<path d="M65.6738 46.117C62.5561 46.117 60.5649 44.0683 60.5649 40.8843V33.9944H61.6391V40.7277C61.6391 43.4028 63.1849 45.0601 65.6607 45.0601C68.1366 45.0601 69.6824 43.3898 69.6824 40.7277V33.9944H70.7696V40.8843C70.7696 44.0553 68.7916 46.117 65.6607 46.117H65.6738Z" fill="#7B7B7B"/>
<path d="M76.7039 46.1171C73.9791 46.1171 72.25 44.7469 72.0928 42.5155H73.1538C73.311 44.1727 74.6734 45.1123 76.7301 45.1123C78.7867 45.1123 80.2015 44.1727 80.2015 42.6721C80.2015 40.8322 78.4068 40.4929 76.5598 40.1797C74.5031 39.8274 72.3286 39.449 72.3286 37.0088C72.3286 35.0775 74.0708 33.7595 76.6384 33.7595C79.2059 33.7595 80.8696 35.0775 80.9744 37.1914H79.9395C79.8347 35.6386 78.6164 34.7382 76.6122 34.7382C74.6079 34.7382 73.3765 35.6386 73.3765 36.9827C73.3765 38.6008 74.9878 38.8617 76.8218 39.1619C78.9046 39.5011 81.2757 39.9187 81.2757 42.6329C81.2757 44.7339 79.4548 46.1171 76.7039 46.1171Z" fill="#7B7B7B"/>
<path d="M84.3671 33.9944H83.2798V45.8691H84.3671V33.9944Z" fill="#7B7B7B"/>
<path d="M92.5153 33.7594C95.3711 33.7594 97.1657 35.8081 97.1657 38.8225V45.882H96.0915V39.0573C96.0915 36.3562 94.6768 34.7642 92.2795 34.7642C89.8823 34.7642 88.0614 36.7346 88.0614 39.1095V45.882H86.9741V33.9943H87.7732L87.9828 36.3953C88.8474 34.8033 90.5373 33.7463 92.5153 33.7463V33.7594Z" fill="#7B7B7B"/>
<path d="M99.6547 39.3054H109.414C109.152 36.5781 107.161 34.7774 104.58 34.7774C102 34.7774 99.9298 36.6434 99.6678 39.3054M110.475 40.3102H99.6547C99.825 43.0897 101.855 45.047 104.593 45.047C106.545 45.047 108.117 44.0553 108.995 42.3981H110.134C109.047 44.773 107.069 46.104 104.58 46.104C101.161 46.104 98.5674 43.442 98.5674 39.9187C98.5674 36.3954 101.161 33.7595 104.58 33.7595C107.999 33.7595 110.488 36.4607 110.488 39.8926C110.488 40.0231 110.488 40.1797 110.462 40.3102" fill="#7B7B7B"/>
<path d="M116.003 46.1171C113.278 46.1171 111.549 44.7469 111.392 42.5155H112.453C112.61 44.1727 113.973 45.1123 116.029 45.1123C118.086 45.1123 119.501 44.1727 119.501 42.6721C119.501 40.8322 117.706 40.4929 115.859 40.1797C113.802 39.8274 111.628 39.449 111.628 37.0088C111.628 35.0775 113.37 33.7595 115.938 33.7595C118.505 33.7595 120.169 35.0775 120.274 37.1914H119.239C119.134 35.6386 117.916 34.7382 115.911 34.7382C113.907 34.7382 112.676 35.6386 112.676 36.9827C112.676 38.6008 114.287 38.8617 116.121 39.1619C118.204 39.5011 120.575 39.9187 120.575 42.6329C120.575 44.7339 118.754 46.1171 116.003 46.1171Z" fill="#7B7B7B"/>
<path d="M126.116 46.1171C123.391 46.1171 121.662 44.7469 121.505 42.5155H122.566C122.723 44.1727 124.086 45.1123 126.142 45.1123C128.199 45.1123 129.614 44.1727 129.614 42.6721C129.614 40.8322 127.819 40.4929 125.972 40.1797C123.915 39.8274 121.741 39.449 121.741 37.0088C121.741 35.0775 123.483 33.7595 126.05 33.7595C128.618 33.7595 130.282 35.0775 130.387 37.1914H129.352C129.247 35.6386 128.029 34.7382 126.024 34.7382C124.02 34.7382 122.789 35.6386 122.789 36.9827C122.789 38.6008 124.4 38.8617 126.234 39.1619C128.317 39.5011 130.688 39.9187 130.688 42.6329C130.688 44.7339 128.867 46.1171 126.116 46.1171Z" fill="#7B7B7B"/>
<path d="M149.04 33.9944L145.045 45.8691H143.067L139.989 38.6399L136.936 45.8691H134.945L130.95 33.9944H133.478L136.163 42.0066L139.596 34.1249H140.382L143.853 42.0588L146.578 33.9944H149.04Z" fill="#7B7B7B"/>
<path d="M152.473 33.9944H150.023V45.8691H152.473V33.9944Z" fill="#7B7B7B"/>
<path d="M161.197 33.9292V36.2389H159.9C157.87 36.2389 156.861 37.3872 156.861 39.5403V45.8692H154.412V33.9944H156.075L156.494 35.6125C157.346 34.4903 158.512 33.9292 160.149 33.9292H161.21H161.197Z" fill="#7B7B7B"/>
<path d="M166.922 35.9126C165.075 35.9126 163.739 37.0218 163.332 38.7834H170.537C170.092 36.9826 168.73 35.9126 166.922 35.9126ZM173 39.9578C173 40.2319 172.974 40.4928 172.948 40.7538H163.267C163.568 42.672 164.97 43.8595 166.922 43.8595C168.35 43.8595 169.502 43.2071 170.131 42.124H172.712C171.756 44.6294 169.581 46.1562 166.922 46.1562C163.437 46.1562 160.804 43.4811 160.804 39.9317C160.804 36.3824 163.437 33.7073 166.922 33.7073C170.406 33.7073 173 36.4998 173 39.9578Z" fill="#7B7B7B"/>
<path d="M64.7436 52.6677H66.5645L65.6475 50.4754L64.7436 52.6677ZM66.7348 53.0591H64.5864L64.1279 54.1422H63.6694L65.4379 49.8882H65.8309L67.6517 54.1422H67.1933L66.7348 53.0591Z" fill="#7B7B7B"/>
<path d="M72.5643 52.9286C72.5643 52.485 72.2106 52.1457 71.739 52.1457H70.4552V53.7246H71.7259C72.1975 53.7246 72.5512 53.3854 72.5512 52.9286M70.4552 50.3058V51.7281H71.7128C72.1189 51.7281 72.4333 51.4019 72.4333 51.0104C72.4333 50.6189 72.1058 50.3058 71.6997 50.3058H70.4552ZM72.9966 52.9808C72.9966 53.6333 72.4595 54.1422 71.7128 54.1422H70.0229V49.8882H71.6866C72.3809 49.8882 72.8656 50.358 72.8656 50.9582C72.8656 51.3627 72.6298 51.7542 72.2892 51.9239C72.7084 52.0804 72.9835 52.498 72.9835 52.9808" fill="#7B7B7B"/>
<path d="M76.5337 53.7377V54.1422H74.0972V49.8882H76.4682V50.2927H74.5164V51.7412H76.311V52.1457H74.5164V53.7377H76.5337Z" fill="#7B7B7B"/>
<path d="M77.9743 52.0152H79.1271C79.6903 52.0152 80.0702 51.6498 80.0702 51.154C80.0702 50.6581 79.6903 50.2927 79.1271 50.2927H77.9743V52.0152ZM79.0616 52.4197H77.9743V54.1422H77.542V49.8882H79.1402C79.9261 49.8882 80.5025 50.4232 80.5025 51.154C80.5025 51.7673 80.0964 52.237 79.507 52.3806L80.5549 54.1422H80.0702L79.0485 52.4197H79.0616Z" fill="#7B7B7B"/>
<path d="M82.6119 52.1326H81.9963V54.1422H81.564V49.8882H81.9963V51.7412H82.6119L84.0791 49.8882H84.6293L83.0049 51.9239L84.7734 54.1422H84.2232L82.6119 52.1326Z" fill="#7B7B7B"/>
<path d="M85.0747 52.8503H85.507C85.507 53.4245 85.9655 53.7768 86.6205 53.7768C87.21 53.7768 87.6554 53.4506 87.6554 52.9547C87.6554 52.3936 87.1183 52.2761 86.5419 52.1456C85.8738 51.989 85.1533 51.8194 85.1533 50.9973C85.1533 50.2796 85.7166 49.8359 86.5812 49.8359C87.4458 49.8359 87.9828 50.3188 87.9828 51.0756H87.5637C87.5637 50.5536 87.1576 50.2535 86.5812 50.2535C86.0048 50.2535 85.5856 50.5406 85.5856 50.9973C85.5856 51.5193 86.1096 51.6367 86.686 51.7803C87.3541 51.9369 88.1007 52.1065 88.1007 52.9808C88.1007 53.7637 87.472 54.2205 86.6205 54.2205C85.6904 54.2205 85.0747 53.6985 85.0747 52.8764" fill="#7B7B7B"/>
<path d="M92.345 49.8882V54.1422H91.9127V52.1457H89.5286V54.1422H89.1094V49.8882H89.5286V51.7412H91.9127V49.8882H92.345Z" fill="#7B7B7B"/>
<path d="M94.0871 49.8882H93.6548V54.1422H94.0871V49.8882Z" fill="#7B7B7B"/>
<path d="M95.8293 52.0152H96.982C97.5453 52.0152 97.9252 51.6498 97.9252 51.154C97.9252 50.6581 97.5453 50.2927 96.982 50.2927H95.8293V52.0152ZM96.9165 52.4197H95.8293V54.1422H95.397V49.8882H96.9951C97.7811 49.8882 98.3575 50.4232 98.3575 51.154C98.3575 51.7673 97.9514 52.237 97.3619 52.3806L98.4099 54.1422H97.9252L96.9034 52.4197H96.9165Z" fill="#7B7B7B"/>
<path d="M101.869 53.7377V54.1422H99.4189V49.8882H101.803V50.2927H99.8512V51.7412H101.646V52.1457H99.8512V53.7377H101.869Z" fill="#7B7B7B"/>
<path d="M107.855 49.8882V54.1422H107.436V52.1457H105.051V54.1422H104.619V49.8882H105.051V51.7412H107.436V49.8882H107.855Z" fill="#7B7B7B"/>
<path d="M109.754 52.6677H111.575L110.658 50.4754L109.754 52.6677ZM111.746 53.0591H109.597L109.139 54.1422H108.68L110.449 49.8882H110.842L112.662 54.1422H112.204L111.746 53.0591Z" fill="#7B7B7B"/>
<path d="M115.728 50.2797H114.392V54.1422H113.959V50.2797H112.636V49.8882H115.728V50.2797Z" fill="#7B7B7B"/>
<path d="M119.802 49.8882V54.1422H119.37V52.1457H116.999V54.1422H116.566V49.8882H116.999V51.7412H119.37V49.8882H119.802Z" fill="#7B7B7B"/>
<path d="M121.702 52.6677H123.522L122.606 50.4754L121.702 52.6677ZM123.693 53.0591H121.544L121.086 54.1422H120.627L122.396 49.8882H122.789L124.61 54.1422H124.151L123.693 53.0591Z" fill="#7B7B7B"/>
<path d="M130.714 49.8882L129.352 54.1422H128.985L127.74 50.906L126.535 54.1422H126.168L124.78 49.8882H125.238L126.365 53.4376L127.649 49.9926H127.832L129.155 53.4376L130.255 49.8882H130.714Z" fill="#7B7B7B"/>
<path d="M131.945 52.6677H133.766L132.849 50.4754L131.945 52.6677ZM133.936 53.0591H131.788L131.33 54.1422H130.871L132.64 49.8882H133.033L134.853 54.1422H134.395L133.936 53.0591Z" fill="#7B7B7B"/>
<path d="M136.845 52.4458V54.1422H136.4V52.4458L134.814 49.8882H135.286L136.622 52.0413L137.971 49.8882H138.443L136.845 52.4458Z" fill="#7B7B7B"/>
<path d="M140.604 52.0153C140.604 50.7364 141.521 49.823 142.792 49.823C143.762 49.823 144.534 50.3841 144.796 51.2715H144.364C144.115 50.619 143.539 50.2406 142.792 50.2406C141.77 50.2406 141.037 50.9844 141.037 52.0153C141.037 53.0461 141.77 53.7899 142.792 53.7899C143.552 53.7899 144.141 53.3724 144.39 52.6808H144.823C144.561 53.6203 143.788 54.2075 142.792 54.2075C141.521 54.2075 140.604 53.2941 140.604 52.0153Z" fill="#7B7B7B"/>
<path d="M149.46 52.0151C149.46 50.9973 148.7 50.2274 147.665 50.2274C146.63 50.2274 145.87 50.9973 145.87 52.0151C145.87 53.033 146.63 53.7898 147.665 53.7898C148.7 53.7898 149.46 53.033 149.46 52.0151ZM145.438 52.0151C145.438 50.7624 146.368 49.8098 147.665 49.8098C148.962 49.8098 149.892 50.7494 149.892 52.0151C149.892 53.2809 148.962 54.2074 147.665 54.2074C146.368 54.2074 145.438 53.2678 145.438 52.0151Z" fill="#7B7B7B"/>
<path d="M155.381 54.1422L154.791 50.645L153.259 54.0117H153.141L151.608 50.645L151.006 54.1422H150.573L151.307 49.8882H151.713L153.193 53.1896L154.687 49.8882H155.093L155.813 54.1422H155.381Z" fill="#7B7B7B"/>
<path d="M159.271 51.2192C159.271 50.6972 158.852 50.2927 158.289 50.2927H157.241V52.1457H158.289C158.852 52.1457 159.271 51.7542 159.271 51.2192ZM159.704 51.2192C159.704 51.9891 159.114 52.5633 158.315 52.5633H157.241V54.1422H156.809V49.8882H158.315C159.101 49.8882 159.704 50.4623 159.704 51.2192Z" fill="#7B7B7B"/>
<path d="M160.909 52.6677H162.73L161.813 50.4754L160.909 52.6677ZM162.9 53.0591H160.752L160.293 54.1422H159.835L161.603 49.8882H161.996L163.817 54.1422H163.359L162.9 53.0591Z" fill="#7B7B7B"/>
<path d="M168.009 49.8882V54.1422H167.655L165.075 50.632V54.1422H164.656V49.8882H165.049L167.59 53.3593V49.8882H168.009Z" fill="#7B7B7B"/>
<path d="M170.93 52.4458V54.1422H170.498V52.4458L168.9 49.8882H169.371L170.721 52.0413L172.057 49.8882H172.529L170.93 52.4458Z" fill="#7B7B7B"/>
</g>
<defs>
<clipPath id="clip0_1237_2936">
<rect width="163" height="30" fill="white" transform="translate(10 27)"/>
</clipPath>
</defs>
</svg>
