<svg xmlns="http://www.w3.org/2000/svg" width="194" height="85" viewBox="0 0 194 85" fill="none"><path d="M143.128 33.063C143.128 31.9656 142.236 31.0761 141.14 31.0761C140.041 31.0761 139.149 31.9656 139.149 33.063V37.2424C139.149 38.3457 140.041 39.2357 141.14 39.2357C142.236 39.2357 143.128 38.3457 143.128 37.2424V33.063ZM132.19 27.5775C132.19 26.4805 131.3 25.5893 130.177 25.5893C129.078 25.5893 128.188 26.4805 128.188 27.5775V37.2424C128.188 38.3457 129.078 39.2357 130.177 39.2357C131.3 39.2357 132.19 38.3457 132.19 37.2424V27.5775ZM121.229 20.0728C121.229 18.9755 120.339 18.0856 119.241 18.0856C118.142 18.0856 117.252 18.9755 117.252 20.0728V41.214C117.252 42.3178 118.142 43.2073 119.241 43.2073C120.339 43.2073 121.229 42.3178 121.229 41.214V20.0728ZM110.265 27.5775C110.265 26.4805 109.376 25.5893 108.277 25.5893C107.181 25.5893 106.289 26.4805 106.289 27.5775V37.2424C106.289 38.3457 107.181 39.2357 108.277 39.2357C109.376 39.2357 110.265 38.3457 110.265 37.2424V27.5775ZM99.3046 33.063C99.3046 31.9656 98.4151 31.0761 97.3228 31.0761C96.2242 31.0761 95.3283 31.9656 95.3283 33.063V37.2424C95.3283 38.3457 96.2242 39.2357 97.3228 39.2357C98.4151 39.2357 99.3046 38.3457 99.3046 37.2424V33.063ZM88.3616 27.5775C88.3616 26.4805 87.4653 25.5893 86.3671 25.5893C85.2684 25.5893 84.3721 26.4805 84.3721 27.5775V37.2424C84.3721 38.3457 85.2684 39.2357 86.3671 39.2357C87.4653 39.2357 88.3616 38.3457 88.3616 37.2424V27.5775ZM77.4058 20.0728C77.4058 18.9755 76.5095 18.0856 75.4109 18.0856C74.3127 18.0856 73.4164 18.9755 73.4164 20.0728V41.214C73.4164 42.3178 74.3127 43.2073 75.4109 43.2073C76.5095 43.2073 77.4058 42.3178 77.4058 41.214V20.0728ZM66.4496 27.5775C66.4496 26.4805 65.5538 25.5893 64.4551 25.5893C63.3565 25.5893 62.4606 26.4805 62.4606 27.5775V37.2424C62.4606 38.3457 63.3565 39.2357 64.4551 39.2357C65.5538 39.2357 66.4496 38.3457 66.4496 37.2424V27.5775ZM55.4939 33.063C55.4939 31.9656 54.598 31.0761 53.4994 31.0761C52.402 31.0761 51.5049 31.9656 51.5049 33.063V37.2424C51.5049 38.3457 52.402 39.2357 53.4994 39.2357C54.598 39.2357 55.4939 38.3457 55.4939 37.2424V33.063ZM96.6717 50.3929C96.5521 50.3602 94.7116 49.8856 92.7557 49.8856C89.0526 49.8856 86.8231 51.8852 86.8231 54.8629C86.8231 57.4988 88.6882 58.8133 90.9266 59.5204C91.1747 59.6023 91.5404 59.7168 91.7839 59.7974C92.7803 60.1109 93.5756 60.5766 93.5756 61.3834C93.5756 62.2857 92.6564 62.8698 90.6581 62.8698C88.902 62.8698 87.2184 62.3675 86.8638 62.278V65.9417C87.0615 65.9837 89.0623 66.3765 91.1998 66.3765C94.2742 66.3765 97.7911 65.0331 97.7911 61.0339C97.7911 59.0941 96.6034 57.3083 93.996 56.4795L92.8876 56.1265C92.2263 55.9179 91.0458 55.5798 91.0458 54.6105C91.0458 53.8449 91.9204 53.3057 93.5311 53.3057C94.9207 53.3057 96.6119 53.7728 96.6717 53.7914V50.3929ZM130.624 58.1312C130.624 60.4477 128.849 62.3217 126.468 62.3217C124.085 62.3217 122.315 60.4477 122.315 58.1312C122.315 55.8194 124.085 53.9446 126.468 53.9446C128.849 53.9446 130.624 55.8194 130.624 58.1312ZM126.468 49.8907C121.572 49.8907 118.06 53.584 118.06 58.1312C118.06 62.6857 121.572 66.3765 126.468 66.3765C131.365 66.3765 134.882 62.6857 134.882 58.1312C134.882 53.584 131.365 49.8907 126.468 49.8907ZM71.8953 50.4612C71.5178 50.3492 70.1222 49.8907 68.232 49.8907C63.3429 49.8907 59.7539 53.3766 59.7539 58.1312C59.7539 63.2609 63.7158 66.3765 68.232 66.3765C70.0263 66.3765 71.396 65.9514 71.8953 65.8098V61.5361C71.7226 61.632 70.4094 62.3811 68.5201 62.3811C65.8435 62.3811 64.1171 60.4973 64.1171 58.1312C64.1171 55.693 65.9181 53.8848 68.5201 53.8848C70.4416 53.8848 71.7337 54.6504 71.8953 54.7348V50.4612ZM113.83 50.4612C113.449 50.3492 112.053 49.8907 110.169 49.8907C105.272 49.8907 101.683 53.3766 101.683 58.1312C101.683 63.2609 105.65 66.3765 110.169 66.3765C111.953 66.3765 113.325 65.9514 113.83 65.8098V61.5361C113.653 61.632 112.338 62.3811 110.45 62.3811C107.775 62.3811 106.05 60.4973 106.05 58.1312C106.05 55.693 107.852 53.8848 110.45 53.8848C112.371 53.8848 113.666 54.6504 113.83 54.7348V50.4612ZM81.4355 66.0931H77.4177V50.1727H81.4355V66.0931Z" fill="#2D1A0B"></path></svg>