<svg xmlns="http://www.w3.org/2000/svg" width="194" height="85" viewBox="0 0 194 85" fill="none"><path d="M88.1249 43.2463C88.1249 48.8044 83.7767 52.9001 78.4406 52.9001C73.1044 52.9001 68.7563 48.8044 68.7563 43.2463C68.7563 37.649 73.1044 33.5924 78.4406 33.5924C83.7767 33.5924 88.1249 37.649 88.1249 43.2463ZM83.8855 43.2463C83.8855 39.773 81.3654 37.3965 78.4406 37.3965C75.5157 37.3965 72.9956 39.773 72.9956 43.2463C72.9956 46.6847 75.5157 49.096 78.4406 49.096C81.3654 49.096 83.8855 46.6804 83.8855 43.2463Z" fill="#2D1A0B"></path><path d="M109.017 43.2463C109.017 48.8044 104.669 52.9001 99.3325 52.9001C93.9964 52.9001 89.6482 48.8044 89.6482 43.2463C89.6482 37.6533 93.9964 33.5924 99.3325 33.5924C104.669 33.5924 109.017 37.649 109.017 43.2463ZM104.777 43.2463C104.777 39.773 102.257 37.3965 99.3325 37.3965C96.4076 37.3965 93.8876 39.773 93.8876 43.2463C93.8876 46.6847 96.4076 49.096 99.3325 49.096C102.257 49.096 104.777 46.6804 104.777 43.2463Z" fill="#2D1A0B"></path><path d="M129.038 34.1757V51.5073C129.038 58.6367 124.834 61.5485 119.863 61.5485C115.185 61.5485 112.368 58.4191 111.306 55.8598L114.997 54.3234C115.655 55.8946 117.265 57.7488 119.859 57.7488C123.041 57.7488 125.012 55.7858 125.012 52.0905V50.7021H124.864C123.916 51.8729 122.088 52.8957 119.781 52.8957C114.954 52.8957 110.532 48.6912 110.532 43.2811C110.532 37.8318 114.954 33.5924 119.781 33.5924C122.083 33.5924 123.911 34.6153 124.864 35.7513H125.012V34.18H129.038V34.1757ZM125.313 43.2811C125.313 39.8818 123.045 37.3965 120.159 37.3965C117.235 37.3965 114.784 39.8818 114.784 43.2811C114.784 46.6456 117.235 49.096 120.159 49.096C123.045 49.096 125.313 46.6456 125.313 43.2811Z" fill="#2D1A0B"></path><path d="M135.676 24.017V52.3082H131.541V24.017H135.676Z" fill="#2D1A0B"></path><path d="M151.789 46.4236L155.079 48.6172C154.017 50.1885 151.458 52.8957 147.036 52.8957C141.552 52.8957 137.456 48.6564 137.456 43.2419C137.456 37.501 141.586 33.5881 146.561 33.5881C151.571 33.5881 154.022 37.575 154.822 39.7295L155.262 40.8263L142.357 46.1711C143.345 48.108 144.881 49.096 147.036 49.096C149.195 49.096 150.692 48.034 151.789 46.4236ZM141.66 42.9503L150.287 39.3682C149.813 38.1626 148.385 37.3225 146.705 37.3225C144.55 37.3225 141.552 39.2246 141.66 42.9503Z" fill="#2D1A0B"></path><path d="M53.1049 40.7349V36.6392H66.9066C67.0415 37.353 67.1112 38.1974 67.1112 39.1114C67.1112 42.1842 66.2712 45.984 63.5639 48.6912C60.9306 51.4333 57.5662 52.8957 53.1092 52.8957C44.8482 52.8957 37.9016 46.1668 37.9016 37.9058C37.9016 29.6447 44.8482 22.9158 53.1092 22.9158C57.6793 22.9158 60.935 24.709 63.3811 27.0463L60.491 29.9363C58.737 28.2911 56.3605 27.0115 53.1049 27.0115C47.0723 27.0115 42.3542 31.8732 42.3542 37.9058C42.3542 43.9383 47.0723 48.8 53.1049 48.8C57.0178 48.8 59.2462 47.2288 60.6738 45.8012C61.8316 44.6434 62.5933 42.9895 62.8936 40.7305L53.1049 40.7349Z" fill="#2D1A0B"></path></svg>