<svg width="182" height="84" viewBox="0 0 182 84" fill="none" xmlns="http://www.w3.org/2000/svg">
<g clip-path="url(#clip0_1237_2977)">
<path d="M71.7222 31.8105C71.7222 47.3054 63.3173 59.3224 51.5553 66.782C39.7692 59.3224 31.4126 47.2814 31.4126 31.8105H71.7222Z" fill="#4A4A4A"/>
<path d="M31.0986 19.1941H72.0121V31.4269H31.0986V19.1941Z" fill="#8A8787"/>
<path d="M71.4324 31.043V31.3069C71.4324 32.1944 71.4083 33.0818 71.3358 33.9693H31.7749C31.7266 33.1058 31.6783 32.2423 31.6783 31.3548V31.067H31.0986V31.3548C31.0986 32.2183 31.1228 33.1058 31.1952 33.9693C31.2435 34.9048 31.3402 35.8402 31.4609 36.7517C31.5575 37.5192 31.6783 38.2868 31.8232 39.0303C31.9923 39.9658 32.2096 40.9012 32.4511 41.8127C32.6685 42.5802 32.8859 43.3478 33.1274 44.0914C33.4414 45.0268 33.8037 45.9622 34.1901 46.8737C34.5282 47.6413 34.8663 48.4088 35.2528 49.1524C35.7358 50.0878 36.243 51.0233 36.7985 51.9347C36.8226 51.9587 36.8226 51.9587 36.8226 51.9827C37.2815 52.7263 37.7887 53.4938 38.2959 54.2134C38.9722 55.1728 39.6967 56.1083 40.4696 56.9958C41.1459 57.7873 41.8463 58.5309 42.5708 59.2744C43.5127 60.2339 44.503 61.1693 45.5657 62.0568C47.3529 63.5919 49.3092 65.031 51.4346 66.3503L51.6037 66.4462L51.7727 66.3503C53.8739 65.031 55.8302 63.5919 57.6175 62.0568C58.6802 61.1693 59.6704 60.2339 60.6123 59.2744C61.3369 58.5309 62.0373 57.7633 62.7136 56.9958C63.4864 56.0843 64.1868 55.1488 64.8872 54.2134C65.4186 53.4698 65.9016 52.7263 66.3847 51.9587L66.4088 51.9347C66.9643 51.0233 67.4715 50.0878 67.9545 49.1524C68.341 48.4088 68.7032 47.6413 69.0172 46.8737C69.4037 45.9622 69.7659 45.0268 70.0799 44.0914C70.3214 43.3478 70.5629 42.5802 70.7562 41.8127C70.9977 40.9012 71.215 39.9658 71.3841 39.0303C71.529 38.2868 71.6498 37.5192 71.7464 36.7517C71.8671 35.8162 71.9638 34.9048 72.0121 33.9693C72.0604 33.1058 72.1087 32.1944 72.1087 31.3069V31.019L71.4324 31.043ZM51.5553 65.8466C49.7198 64.6952 48.0292 63.448 46.4351 62.1527H56.6514C55.0574 63.448 53.3667 64.6952 51.5553 65.8466ZM59.7187 59.3464H43.3437C42.595 58.6028 41.8946 57.8353 41.2183 57.0677H61.8682C61.192 57.8353 60.4674 58.6028 59.7187 59.3464ZM64.0661 54.2854H38.9963C38.4408 53.5418 37.9336 52.7742 37.4506 52.0067H65.6359C65.1288 52.7742 64.6216 53.5178 64.0661 54.2854ZM67.2058 49.2003H35.8566C35.4701 48.4568 35.1079 47.6892 34.7939 46.9217H68.2927C67.9545 47.6892 67.5923 48.4568 67.2058 49.2003ZM69.3553 44.1393H33.707C33.4655 43.3958 33.224 42.6282 33.0066 41.8607H70.0316C69.8384 42.6282 69.621 43.3958 69.3553 44.1393ZM70.6837 39.0783H32.4028C32.2579 38.3347 32.1372 37.5672 32.0406 36.7996H71.0943C70.9735 37.5432 70.8528 38.3108 70.6837 39.0783Z" fill="#8A8787"/>
<path d="M39.0202 22.9359C39.0202 22.1923 39.624 21.6166 40.3486 21.6166H43.6815V22.9119H44.237C44.4544 22.9119 44.6718 23.1038 44.6718 23.3436C44.6718 23.5595 44.4786 23.7754 44.237 23.7754H43.6815V26.7496H44.237C44.4544 26.7496 44.6718 26.9415 44.6718 27.1814C44.6718 27.3972 44.4786 27.6131 44.237 27.6131H43.6815V29.0043H39.6723C39.5757 29.2202 39.31 29.4121 39.0444 29.4121C38.7787 29.4121 38.5372 29.2442 38.3923 29.0043H34.3589V27.6131H33.8034C33.586 27.6131 33.3687 27.4212 33.3687 27.1814C33.3687 26.9655 33.5619 26.7496 33.8034 26.7496H34.3589V23.7754H33.8034C33.586 23.7754 33.3687 23.5835 33.3687 23.3436C33.3687 23.1277 33.5619 22.9119 33.8034 22.9119H34.3589V21.6166H37.6919C38.4164 21.5927 39.0202 22.2163 39.0202 22.9359Z" fill="#4A4A4A"/>
<path d="M39.0202 22.9359V27.9969M39.0202 22.9359C39.0202 22.1923 39.624 21.6166 40.3486 21.6166H43.6815V22.9119H44.237C44.4544 22.9119 44.6718 23.1038 44.6718 23.3436C44.6718 23.5595 44.4786 23.7754 44.237 23.7754H43.6815V26.7496H44.237C44.4544 26.7496 44.6718 26.9415 44.6718 27.1814C44.6718 27.3972 44.4786 27.6131 44.237 27.6131H43.6815V29.0043H39.6723C39.5757 29.2202 39.31 29.4121 39.0444 29.4121C38.7787 29.4121 38.5372 29.2442 38.3923 29.0043H34.3589V27.6131H33.8034C33.586 27.6131 33.3687 27.4212 33.3687 27.1814C33.3687 26.9655 33.5619 26.7496 33.8034 26.7496H34.3589V23.7754H33.8034C33.586 23.7754 33.3687 23.5835 33.3687 23.3436C33.3687 23.1277 33.5619 22.9119 33.8034 22.9119H34.3589V21.6166H37.6919C38.4164 21.5927 39.0202 22.2163 39.0202 22.9359Z" stroke="#8A8787" stroke-width="0.7"/>
<path d="M40.4693 24.4469C40.4693 24.5668 40.4935 24.6148 40.6384 24.6148C40.7592 24.6148 40.8075 24.6148 40.8558 24.5189C40.9282 24.4229 41.1456 24.1591 41.1456 24.5189V24.9986C41.1456 25.3584 40.9282 25.1185 40.8558 24.9986C40.8316 24.9026 40.7833 24.8787 40.6384 24.8787C40.5177 24.8787 40.4452 24.9026 40.4452 25.0466C40.421 25.5023 40.421 25.9101 40.4452 26.1499C40.4452 26.2459 40.4693 26.2698 40.6143 26.2698H40.8799C41.2905 26.2698 41.363 26.054 41.4354 25.7901C41.532 25.4063 41.7011 25.4303 41.7011 25.7901V26.3898C41.7011 26.5817 41.5079 26.4857 41.4113 26.4857H39.8655C39.7448 26.4857 39.6965 26.3898 39.7931 26.3178C39.8897 26.2459 39.8897 26.2459 39.8897 26.006V23.7273C39.8897 23.4635 39.8655 23.4635 39.7931 23.4155C39.7206 23.3436 39.7206 23.2476 39.8655 23.2476H41.3388C41.4354 23.2476 41.6286 23.1517 41.6286 23.3436V23.9192C41.6286 24.1111 41.4354 24.1831 41.363 23.9192C41.2905 23.6554 41.2905 23.3675 40.8799 23.3675H40.6143C40.5177 23.3675 40.4935 23.3915 40.4452 23.4875C40.4452 23.8713 40.4693 24.231 40.4693 24.4469Z" fill="#8A8787"/>
<path d="M42.9814 28.4285L42.2327 27.7569M39.1413 27.9968C39.2137 27.8768 39.4311 27.7809 39.7692 27.7809H42.2327V21.6885H42.4259L42.9814 22.2641V28.4525H39.6967M38.8997 27.9968C38.8273 27.8768 38.6099 27.7809 38.2718 27.7809H35.8083V21.6885H35.6151L35.0596 22.2641V28.4525H38.3442M35.0837 28.4285L35.8324 27.7569" stroke="#8A8787" stroke-width="0.7"/>
<path d="M37.5715 26.15C37.499 26.3658 37.4507 26.5098 37.3058 26.5098C37.1609 26.5098 37.1367 26.3419 37.0884 26.15L36.5088 23.6794C36.4363 23.4156 36.4122 23.4156 36.3397 23.3676C36.2431 23.2957 36.2431 23.1997 36.3639 23.1997H36.9435C37.0643 23.1997 37.1126 23.2957 37.0401 23.3676C36.9677 23.4396 36.9435 23.4396 37.016 23.6794L37.3782 25.2625C37.4024 25.5263 37.5473 25.4544 37.5956 25.2625L38.0787 23.6794C38.1028 23.4156 38.0545 23.4156 37.982 23.3676C37.9579 23.2957 37.9579 23.1997 38.0787 23.1997H38.5134C38.61 23.1997 38.61 23.2957 38.5375 23.3676C38.4651 23.4396 38.4409 23.4396 38.3443 23.6554L37.5715 26.15Z" fill="#8A8787"/>
<path d="M51.2414 29.4119C51.5312 29.4119 51.7486 29.244 51.8694 29.0042H55.468V27.613H56.0235C56.2409 27.613 56.4582 27.4211 56.4582 27.1812C56.4582 26.9654 56.265 26.7495 56.0235 26.7495H55.468V23.7513H56.0235C56.2409 23.7513 56.4582 23.5594 56.4582 23.3195C56.4582 23.1036 56.265 22.8878 56.0235 22.8878H55.468V21.5925H52.5698C51.8211 21.5925 51.2414 22.1922 51.2414 22.9118C51.2414 22.1682 50.6376 21.5925 49.913 21.5925H46.5801V22.8878H46.0246C45.8072 22.8878 45.5898 23.0797 45.5898 23.3195C45.5898 23.5354 45.7831 23.7513 46.0246 23.7513H46.5801V26.7255H46.0246C45.8072 26.7255 45.5898 26.9174 45.5898 27.1573C45.5898 27.3731 45.7831 27.589 46.0246 27.589H46.5801V28.9802H50.6135C50.7101 29.22 50.9757 29.4119 51.2414 29.4119Z" fill="#4A4A4A"/>
<path d="M54.7434 28.4285L53.9947 27.7569M51.3622 27.9968C51.4346 27.8768 51.652 27.7809 51.9901 27.7809H54.0189V21.6885H54.2121L54.7676 22.2641V28.4525H51.9177M51.2656 22.456V27.9968M47.2805 28.4285L48.0292 27.7569M51.1206 27.9968C51.0482 27.8768 50.8308 27.7809 50.4927 27.7809H48.0292V21.6885H47.836L47.2805 22.2641V28.4525H50.5652M51.2414 29.4119C51.5312 29.4119 51.7486 29.244 51.8694 29.0042H55.468V27.613H56.0235C56.2409 27.613 56.4582 27.4211 56.4582 27.1812C56.4582 26.9654 56.265 26.7495 56.0235 26.7495H55.468V23.7513H56.0235C56.2409 23.7513 56.4582 23.5594 56.4582 23.3195C56.4582 23.1036 56.265 22.8878 56.0235 22.8878H55.468V21.5925H52.5698C51.8211 21.5925 51.2414 22.1922 51.2414 22.9118C51.2414 22.1682 50.6376 21.5925 49.913 21.5925H46.5801V22.8878H46.0246C45.8072 22.8878 45.5898 23.0797 45.5898 23.3195C45.5898 23.5354 45.7831 23.7513 46.0246 23.7513H46.5801V26.7255H46.0246C45.8072 26.7255 45.5898 26.9174 45.5898 27.1573C45.5898 27.3731 45.7831 27.589 46.0246 27.589H46.5801V28.9802H50.6135C50.7101 29.22 50.9757 29.4119 51.2414 29.4119Z" stroke="#8A8787" stroke-width="0.7"/>
<path d="M63.4865 29.4119C63.7763 29.4119 63.9937 29.244 64.1144 29.0042H68.5825V27.613H69.138C69.3554 27.613 69.5728 27.4211 69.5728 27.1812C69.5728 26.9654 69.3795 26.7495 69.138 26.7495H68.5825V23.7513H69.138C69.3554 23.7513 69.5728 23.5594 69.5728 23.3195C69.5728 23.1036 69.3795 22.8878 69.138 22.8878H68.5825V21.5925H64.839C64.0903 21.5925 63.5106 22.1922 63.5106 22.9118C63.5106 22.1682 62.9068 21.5925 62.1823 21.5925H58.3904V22.8878H57.8591C57.6417 22.8878 57.4243 23.0797 57.4243 23.3195C57.4243 23.5354 57.6175 23.7513 57.8591 23.7513H58.4145V26.7255H57.8591C57.6417 26.7255 57.4243 26.9174 57.4243 27.1573C57.4243 27.3731 57.6175 27.589 57.8591 27.589H58.4145V28.9802H62.8827C62.9551 29.22 63.1966 29.4119 63.4865 29.4119Z" fill="#4A4A4A"/>
<path d="M67.8338 28.4285L67.0851 27.7569M63.5831 27.9968C63.6555 27.8768 63.8729 27.7809 64.211 27.7809H67.1093V21.6885H67.3025L67.858 22.2641V28.4525H64.1386M63.4865 22.456V27.9968M59.0908 28.4285L59.8395 27.7569M63.3657 27.9968C63.2932 27.8768 63.0759 27.7809 62.7377 27.7809H59.8395V21.6885H59.6463L59.0908 22.2641V28.4525H62.8102M63.4865 29.4119C63.7763 29.4119 63.9937 29.244 64.1144 29.0042H68.5825V27.613H69.138C69.3554 27.613 69.5728 27.4211 69.5728 27.1812C69.5728 26.9654 69.3795 26.7495 69.138 26.7495H68.5825V23.7513H69.138C69.3554 23.7513 69.5728 23.5594 69.5728 23.3195C69.5728 23.1036 69.3795 22.8878 69.138 22.8878H68.5825V21.5925H64.839C64.0903 21.5925 63.5106 22.1922 63.5106 22.9118C63.5106 22.1682 62.9068 21.5925 62.1823 21.5925H58.3904V22.8878H57.8591C57.6417 22.8878 57.4243 23.0797 57.4243 23.3195C57.4243 23.5354 57.6175 23.7513 57.8591 23.7513H58.4145V26.7255H57.8591C57.6417 26.7255 57.4243 26.9174 57.4243 27.1573C57.4243 27.3731 57.6175 27.589 57.8591 27.589H58.4145V28.9802H62.8827C62.9551 29.22 63.1966 29.4119 63.4865 29.4119Z" stroke="#8A8787" stroke-width="0.7"/>
<path d="M48.995 26.4378H48.6327C48.6327 26.4378 48.5119 26.3419 48.5602 26.2699C48.6327 26.1979 48.7293 26.1979 48.7293 25.9581V23.5835C48.7293 23.4875 48.7293 23.4156 48.6327 23.3676C48.5361 23.2957 48.6568 23.1997 48.8018 23.1997H49.5505C50.4199 23.1997 50.6856 23.4875 50.6856 23.9912C50.6856 24.375 50.4682 24.6149 50.1784 24.7348C50.0818 24.7588 50.0818 24.8307 50.0818 24.8547C50.0818 24.8787 50.0818 24.9267 50.106 24.9747C50.1301 25.0466 50.6615 26.03 50.7339 26.15C50.8064 26.2459 50.8305 26.2699 50.903 26.3179C50.9271 26.3419 50.9271 26.4858 50.7339 26.4858H50.275C50.275 26.4858 50.2509 26.4858 50.1784 26.3898C50.1543 26.2939 49.5022 24.9986 49.4297 24.8787L49.2606 24.8547V25.9821C49.2606 26.2459 49.3331 26.1979 49.4297 26.2939C49.5022 26.3658 49.4539 26.4618 49.3572 26.4618C49.2123 26.4378 49.0916 26.4378 48.995 26.4378ZM49.2848 24.0152V24.4949C49.2848 24.5909 49.3572 24.6628 49.5022 24.6628C49.6712 24.6628 50.0577 24.5669 50.0577 24.0392C50.0577 23.4875 49.7678 23.4156 49.6229 23.3916C49.4539 23.3676 49.2606 23.3676 49.2606 23.6554V24.0152H49.2848ZM53.0767 26.0061C53.0767 26.2699 53.1008 26.2699 53.1733 26.3179C53.2457 26.3658 53.2457 26.4858 53.1008 26.4858H52.5212C52.4004 26.4858 52.4004 26.3898 52.4487 26.3179C52.5212 26.2459 52.5453 26.2459 52.5453 26.0061V23.7274C52.5453 23.4636 52.5212 23.4636 52.4487 23.4156C52.3762 23.3436 52.3762 23.2477 52.5212 23.2477H53.1008C53.2216 23.2477 53.2699 23.3436 53.1733 23.4156C53.1008 23.4875 53.0767 23.4875 53.0767 23.7274V26.0061Z" fill="#8A8787"/>
<path d="M63.7521 25.5263L63.8487 25.9581C63.8729 26.2219 63.8729 26.2219 63.8246 26.2699C63.7763 26.3179 63.8004 26.4378 63.9212 26.4378H64.5008C64.6216 26.4378 64.5974 26.2699 64.525 26.2459C64.4284 26.174 64.4284 26.126 64.3559 25.9581L63.6797 23.4875C63.6072 23.2717 63.5589 23.1277 63.4864 23.1277C63.3174 23.1517 63.1242 23.2237 63.1725 23.2956L63.1966 23.5835L62.4962 25.9581C62.3996 26.2219 62.3754 26.174 62.303 26.2459C62.2305 26.3179 62.2305 26.4378 62.3271 26.4138H62.7619C62.8585 26.4138 62.8826 26.3179 62.8585 26.2459C62.8343 26.174 62.7377 26.174 62.7619 25.9341L62.9309 25.4544C62.9551 25.3584 63.2208 25.3824 63.3415 25.3824C63.414 25.4304 63.7038 25.3584 63.7521 25.5263ZM63.2208 24.327C63.3174 23.9433 63.414 23.9193 63.5106 24.351L63.6797 25.0226C63.7521 25.1905 63.7038 25.2145 63.3898 25.2145C63.0034 25.2145 62.9551 25.1905 63.0275 25.0226L63.2208 24.327ZM61.3611 23.1997C61.5301 23.1997 61.7233 23.1997 62.0132 23.1757C62.3996 23.1517 62.4237 23.1757 62.4237 23.2717V23.7514C62.4237 23.7514 62.4237 23.9673 62.3271 23.9673C62.2305 23.9673 62.2064 23.8713 62.1581 23.7514C61.989 23.3676 61.8683 23.2956 61.7716 23.2956C61.675 23.2956 61.6509 23.3916 61.6509 23.5835V25.8621C61.6509 26.126 61.675 26.126 61.7475 26.174C61.8441 26.2459 61.8199 26.3419 61.675 26.3419H61.0954C60.9746 26.3419 60.9263 26.2459 61.0229 26.174C61.1195 26.102 61.1195 26.102 61.1195 25.8621V23.6314C61.1195 23.4156 61.0954 23.3436 60.9988 23.3436C60.9022 23.3436 60.7331 23.4156 60.6123 23.7994C60.5882 23.9193 60.5157 24.0152 60.4433 24.0152C60.3708 24.0152 60.3467 23.8473 60.3467 23.7994V23.3196C60.3467 23.2237 60.3467 23.1517 60.7573 23.2237C60.9988 23.1997 61.192 23.1997 61.3611 23.1997ZM64.9114 25.6463C64.9114 25.3584 65.1046 25.3824 65.2012 25.6703C65.2978 25.9581 65.4186 26.2939 65.8292 26.2939C66.2398 26.2939 66.2881 25.8621 66.2881 25.6463C66.2881 25.2865 66.1673 25.1905 65.6118 24.8068C65.1046 24.423 64.9839 24.1831 64.9839 23.8713C64.9839 23.5835 65.2737 23.1038 65.7567 23.1038C65.9741 23.1038 66.119 23.1277 66.2398 23.1997C66.2639 23.2237 66.4088 23.2237 66.4571 23.1757C66.4813 23.1038 66.6262 23.1997 66.6262 23.2717V23.8953C66.6262 24.0632 66.4571 24.1112 66.4088 23.8953C66.3122 23.6075 66.2398 23.2237 65.8533 23.2237C65.5635 23.2237 65.4669 23.5835 65.4669 23.7274C65.4669 24.1112 65.8533 24.2311 66.2881 24.5669C66.7228 24.8787 66.8436 25.0226 66.8436 25.4544C66.8436 25.9341 66.3847 26.4378 65.8775 26.4378C65.6601 26.4378 65.4669 26.3179 65.2978 26.3179C65.1288 26.3179 65.1288 26.3898 65.0805 26.3898C65.008 26.3898 64.9597 26.3658 64.9597 26.2219C64.9114 26.15 64.9114 25.8142 64.9114 25.6463Z" fill="#8A8787"/>
<path d="M82.0349 19.2421H84.5225V24.0392H88.1212V19.2421H90.6813V31.6428H88.1212V26.126H84.5225V31.6428H82.0349V19.2421ZM96.3087 19.1941H99.0137L102.95 31.6188H100.27L99.4002 28.6925H95.7291L94.8113 31.6188H92.1787L96.3087 19.1941ZM96.3087 26.6057H98.7481C98.7481 26.6057 98.3375 25.3105 98.0718 24.1112C97.951 23.5355 97.5646 21.9285 97.5646 21.9285C97.5646 21.9285 97.2023 23.3916 96.9608 24.3271C96.7434 25.2146 96.5744 25.7902 96.3087 26.6057ZM104.231 19.2181L108.868 19.2421C111.066 19.2421 112.539 20.7052 112.539 22.8879C112.539 24.7348 111.307 26.2699 109.761 26.3179C110.003 26.5098 110.124 26.6057 110.293 26.8456C111.017 27.7331 113.288 31.6428 113.288 31.6428H110.341C109.858 30.8272 109.665 30.4914 109.182 29.604C107.95 27.3733 107.539 26.7976 107.129 26.5817C107.008 26.5338 106.936 26.4858 106.742 26.4858V31.6668H104.279L104.231 19.2181ZM106.694 21.2329L106.67 24.5909H107.515C108.578 24.5909 109.061 24.495 109.399 24.1832C109.689 23.8953 109.882 23.4396 109.882 22.9359C109.882 22.1683 109.592 21.6646 108.988 21.4248C108.699 21.3288 108.167 21.2569 107.564 21.2569L106.694 21.2329ZM113.384 19.2421H116.137L118.19 25.6943C118.239 25.9101 118.432 26.5578 118.577 27.0854C118.649 27.3733 118.673 27.4932 118.746 27.853C118.818 27.4932 118.842 27.3733 118.963 26.9655C119.156 26.2939 119.253 26.0061 119.47 25.3825L121.572 19.2421L124.204 19.2181L119.857 31.7147H117.562L113.384 19.2421ZM127.054 19.1941H129.759L133.696 31.6188H131.015L130.146 28.6925H126.475L125.605 31.6188H122.972L127.054 19.1941ZM127.078 26.6057H129.518C129.518 26.6057 129.107 25.3105 128.841 24.1112C128.721 23.5355 128.334 21.9285 128.334 21.9285C128.334 21.9285 127.972 23.3916 127.73 24.3271C127.513 25.2146 127.344 25.7902 127.078 26.6057ZM135 19.2181L139.637 19.2421C141.835 19.2421 143.308 20.7052 143.308 22.8879C143.308 24.7348 142.077 26.2699 140.531 26.3179C140.772 26.5098 140.893 26.6057 141.062 26.8456C141.787 27.7331 144.057 31.6428 144.057 31.6428H141.111C140.628 30.8272 140.434 30.4914 139.951 29.604C138.72 27.3733 138.309 26.7976 137.898 26.5817C137.778 26.5338 137.705 26.4858 137.512 26.4858V31.6668H135.048L135 19.2181ZM137.488 21.2329L137.464 24.5909H138.309C139.372 24.5909 139.855 24.495 140.193 24.1832C140.483 23.8953 140.676 23.4396 140.676 22.9359C140.676 22.1683 140.386 21.6646 139.782 21.4248C139.492 21.3288 138.961 21.2569 138.357 21.2569L137.488 21.2329ZM145.796 19.314H148.308C149.032 19.314 149.974 19.338 150.482 19.386C151.544 19.4819 152.438 19.8897 153.211 20.6093C154.346 21.7366 154.926 23.3197 154.926 25.5504C154.926 27.2534 154.515 28.6205 153.67 29.7719C152.921 30.7793 151.81 31.4269 150.651 31.5468C150.168 31.5708 149.588 31.6188 148.863 31.6188H145.844L145.796 19.314ZM148.332 21.2569V29.58H149.685C151.327 29.58 152.1 28.3807 152.1 25.7662C152.1 24.3271 151.979 23.1038 151.472 22.2883C151.061 21.6167 150.482 21.2569 149.491 21.2569H148.332ZM82.0349 36.1761H84.595V41.8128L88.1453 36.1761H91.2368L87.2517 41.9087L91.6957 48.5528H88.3869L84.595 42.0766V48.5528H82.0349V36.1761ZM98.9171 46.1302L99.859 47.5694C98.7964 48.4329 97.6854 48.8167 96.3812 48.8167C93.7486 48.8167 92.0338 46.9698 92.0338 44.0914C92.0338 42.4604 92.3719 41.3571 93.169 40.4696C93.9177 39.6301 94.8354 39.2463 96.0672 39.2463C97.1299 39.2463 98.1201 39.6061 98.7239 40.2057C99.5692 41.0692 99.9315 42.2925 99.9315 44.1874V44.7391H94.6422V44.811C94.6422 46.2262 95.3426 47.0177 96.5744 47.0177C97.3955 47.0417 98.1684 46.7539 98.9171 46.1302ZM94.6664 43.0121H97.4438V42.9161C97.4438 42.2445 97.3714 41.8847 97.154 41.525C96.9367 41.1652 96.5744 40.9733 96.0913 40.9733C95.1736 40.9733 94.6422 41.6929 94.6422 42.9401L94.6664 43.0121ZM101.236 39.798L103.361 39.1743C103.578 39.5341 103.699 39.9419 103.699 40.3017C104.255 39.9179 104.375 39.822 104.762 39.6301C105.245 39.3902 105.873 39.2463 106.404 39.2463C107.419 39.2463 108.312 39.798 108.602 40.5655C108.723 40.9013 108.771 41.3091 108.771 41.8608V48.5288H106.404V42.5803C106.404 41.5489 106.235 41.2371 105.583 41.2371C105.1 41.2371 104.472 41.5489 103.917 42.0526V48.5048H101.501V41.9087C101.574 41.1412 101.453 40.4216 101.236 39.798ZM110.727 39.798L112.853 39.1743C113.07 39.5341 113.191 39.9419 113.191 40.3017C113.746 39.9179 113.867 39.822 114.254 39.6301C114.737 39.3902 115.365 39.2463 115.896 39.2463C116.91 39.2463 117.804 39.798 118.094 40.5655C118.215 40.9013 118.263 41.3091 118.263 41.8608V48.5288H115.896V42.5803C115.896 41.5489 115.727 41.2371 115.075 41.2371C114.592 41.2371 113.964 41.5489 113.408 42.0526V48.5048H110.993V41.9087C111.041 41.1412 110.945 40.4216 110.727 39.798ZM126.74 46.1302L127.682 47.5694C126.619 48.4329 125.508 48.8167 124.204 48.8167C121.572 48.8167 119.857 46.9698 119.857 44.0914C119.857 42.4604 120.195 41.3571 120.992 40.4696C121.741 39.6301 122.658 39.2463 123.89 39.2463C124.953 39.2463 125.943 39.6061 126.547 40.2057C127.392 41.0692 127.755 42.2925 127.755 44.1874V44.7391H122.441V44.811C122.441 46.2262 123.142 47.0177 124.373 47.0177C125.243 47.0417 126.016 46.7539 126.74 46.1302ZM122.514 43.0121H125.291V42.9161C125.291 42.2445 125.219 41.8847 125.001 41.525C124.784 41.1652 124.422 40.9733 123.939 40.9733C123.021 40.9733 122.489 41.6929 122.489 42.9401V43.0121H122.514ZM136.86 35.7444V45.2188C136.86 47.4735 137.029 48.193 137.198 48.5528H135.048C134.976 48.4089 134.952 48.265 134.904 48.0011C134.3 48.5288 133.623 48.7687 132.802 48.7687C130.46 48.7687 129.01 46.9698 129.01 44.1394C129.01 41.2851 130.604 39.3422 132.923 39.3422C133.599 39.3422 134.107 39.5101 134.565 39.8699C134.541 39.678 134.493 39.0544 134.493 38.5027V35.3606L136.86 35.7444ZM134.517 41.8368C134.058 41.453 133.648 41.2371 133.213 41.2371C132.15 41.2371 131.667 42.1246 131.667 44.1634C131.667 46.1302 132.078 46.7779 133.334 46.7779C133.768 46.7779 134.276 46.49 134.517 46.1782V41.8368ZM138.116 39.6061L140.579 39.3183L142.173 44.6431C142.342 45.1948 142.656 46.538 142.656 46.538C142.656 46.538 142.825 45.5306 142.946 45.0749C143.091 44.4992 143.115 44.4033 143.308 43.8276L144.709 39.4862H147.245L143.912 48.7207C143.284 50.4957 142.825 51.2632 142.149 51.719C141.521 52.1747 140.748 52.4625 139.927 52.5585L139.106 50.9754C139.637 50.8315 140.241 50.6156 140.603 50.3518C140.869 50.1599 141.086 49.92 141.28 49.6082C141.497 49.2484 141.569 49.0565 141.811 48.5528H141.183C141.038 48.1451 140.966 47.9292 140.821 47.4974C140.652 46.9458 140.338 46.0343 140.338 45.9863L138.116 39.6061ZM90.1741 54.5733L88.9907 56.3482C87.8555 55.6766 87.0102 55.4128 86.0924 55.4128C85.078 55.4128 84.3535 56.0124 84.3535 56.8519C84.3535 57.4996 84.6916 57.8114 85.7543 58.0992L87.2759 58.507C89.3288 59.0586 90.4398 60.3539 90.4398 62.2008C90.4398 64.7193 88.3869 66.3743 85.2713 66.3743C83.8463 66.3743 82.2764 65.9666 81.0205 65.247L81.9624 63.3041C83.1217 63.9278 84.1361 64.3116 85.392 64.3116C86.8411 64.3116 87.5657 63.7119 87.5657 62.6086C87.5657 61.793 87.0344 61.2893 85.9234 61.0015L84.5225 60.6417C83.2908 60.3059 82.5179 59.8262 82.059 59.0586C81.7209 58.507 81.5277 57.8593 81.5277 57.1638C81.5277 54.8851 83.3633 53.326 85.9958 53.326C87.5415 53.326 89.0873 53.7817 90.1741 54.5733ZM98.4582 57.7394L97.2989 59.3225C96.8159 58.8907 96.2845 58.6029 95.8498 58.6029C94.7871 58.6029 94.2799 59.5384 94.2799 61.6731C94.2799 62.8724 94.4248 63.568 94.763 63.9757C95.0045 64.2876 95.4392 64.5034 95.8257 64.5034C96.3812 64.5034 96.8884 64.2876 97.468 63.7599L97.6129 63.6399L98.6998 65.0791C98.3375 65.4389 98.1684 65.5588 97.8544 65.7507C97.2023 66.1105 96.4778 66.3264 95.6083 66.3264C93.0723 66.3264 91.6232 64.5754 91.6232 61.6251C91.6232 59.5384 92.4444 58.1232 93.5071 57.4036C94.135 56.9959 95.0287 56.732 95.8015 56.732C96.4295 56.732 97.0574 56.8999 97.5888 57.1398C97.9027 57.2837 98.0718 57.4036 98.4582 57.7394ZM99.5451 53.4459L102.009 52.8703C102.105 53.374 102.178 54.2375 102.178 55.101V56.9239C102.178 57.2117 102.153 57.5955 102.153 57.6914C102.781 57.0918 103.82 56.708 104.762 56.708C105.897 56.708 106.863 57.2597 107.153 58.0033C107.322 58.531 107.37 58.6749 107.37 59.7063V66.0865H105.003V59.9701C105.003 59.0586 104.762 58.7228 104.061 58.7228C103.458 58.7228 102.685 59.0826 102.153 59.5623V66.0865H99.7141V55.5327C99.7383 54.6692 99.6658 53.8297 99.5451 53.4459ZM113.046 56.78C114.35 56.78 115.389 57.2117 116.162 58.1712C116.91 59.0347 117.224 60.0181 117.224 61.5052C117.224 63.0883 116.862 64.1437 116.089 65.0311C115.389 65.8227 114.471 66.2784 113.07 66.2784C110.583 66.2784 108.94 64.4315 108.94 61.5532C108.94 58.6749 110.583 56.78 113.046 56.78ZM113.094 58.5549C112.515 58.5549 112.056 58.9147 111.863 59.4904C111.694 59.9701 111.621 60.6177 111.621 61.5292C111.621 62.5846 111.718 63.3761 111.911 63.8318C112.128 64.3355 112.66 64.5754 113.118 64.5754C114.157 64.5754 114.616 63.6399 114.616 61.5052C114.616 60.2819 114.447 59.4664 114.133 59.0586C113.891 58.7228 113.529 58.5549 113.094 58.5549ZM122.272 56.78C123.576 56.78 124.615 57.2117 125.388 58.1712C126.136 59.0347 126.45 60.0181 126.45 61.5052C126.45 63.0883 126.088 64.1437 125.315 65.0311C124.615 65.8227 123.697 66.2784 122.296 66.2784C119.809 66.2784 118.166 64.4315 118.166 61.5532C118.166 58.6749 119.784 56.78 122.272 56.78ZM122.32 58.5549C121.741 58.5549 121.282 58.9147 121.089 59.4904C120.92 59.9701 120.847 60.6177 120.847 61.5292C120.847 62.5846 120.944 63.3761 121.137 63.8318C121.354 64.3355 121.886 64.5754 122.345 64.5754C123.383 64.5754 123.842 63.6399 123.842 61.5052C123.842 60.2819 123.673 59.4664 123.359 59.0586C123.117 58.7228 122.731 58.5549 122.32 58.5549ZM130.315 52.8943C130.411 53.398 130.435 53.9736 130.435 55.2689V62.3927C130.435 63.9757 130.46 64.1676 130.605 64.4315C130.701 64.5994 130.894 64.6713 131.088 64.6713C131.184 64.6713 131.232 64.6713 131.353 64.6474L131.764 66.0865C131.353 66.2544 130.846 66.3264 130.315 66.3264C129.3 66.3264 128.455 65.8466 128.189 65.0791C128.02 64.5994 127.972 64.3355 127.972 63.0403V56.2283C127.972 55.029 127.948 54.3094 127.851 53.4939L130.315 52.8943Z" fill="#8A8787"/>
<path d="M39.0444 29.436C39.4445 29.436 39.7689 29.1138 39.7689 28.7164C39.7689 28.319 39.4445 27.9968 39.0444 27.9968C38.6442 27.9968 38.3198 28.319 38.3198 28.7164C38.3198 29.1138 38.6442 29.436 39.0444 29.436Z" fill="#4A4A4A" stroke="#8A8787" stroke-width="0.7"/>
<path d="M51.2656 29.436C51.6657 29.436 51.9901 29.1138 51.9901 28.7164C51.9901 28.319 51.6657 27.9968 51.2656 27.9968C50.8654 27.9968 50.541 28.319 50.541 28.7164C50.541 29.1138 50.8654 29.436 51.2656 29.436Z" fill="#4A4A4A" stroke="#8A8787" stroke-width="0.7"/>
<path d="M63.4863 29.436C63.8864 29.436 64.2108 29.1138 64.2108 28.7164C64.2108 28.319 63.8864 27.9968 63.4863 27.9968C63.0861 27.9968 62.7617 28.319 62.7617 28.7164C62.7617 29.1138 63.0861 29.436 63.4863 29.436Z" fill="#4A4A4A" stroke="#8A8787" stroke-width="0.7"/>
</g>
<defs>
<clipPath id="clip0_1237_2977">
<rect width="178" height="68" fill="white" transform="translate(4 9)"/>
</clipPath>
</defs>
</svg>
