<svg xmlns="http://www.w3.org/2000/svg" width="194" height="85" viewBox="0 0 194 85" fill="none"><path d="M46.3602 29.9739V40.2799H36.892V29.9739H32.3999V54.5758H36.8932V44.6042H46.359V54.5758H50.8535V29.9739H46.3602ZM65.2357 46.6241C65.2357 47.6102 64.844 48.5559 64.1467 49.2531C63.4495 49.9504 62.5038 50.3421 61.5177 50.3421C60.5316 50.3421 59.5859 49.9504 58.8886 49.2531C58.1913 48.5559 57.7996 47.6102 57.7996 46.6241V36.0858H53.5373V46.6241C53.5373 48.7385 54.3773 50.7663 55.8724 52.2614C57.3675 53.7566 59.3953 54.5965 61.5098 54.5965C63.6242 54.5965 65.652 53.7566 67.1471 52.2614C68.6422 50.7663 69.4822 48.7385 69.4822 46.6241V36.0858H65.2357V46.6241ZM96.8178 37.1717C96.8178 35.0108 98.2467 34.3261 99.8118 34.3261C101.074 34.3261 102.74 35.2868 103.831 36.4518L106.622 33.1611C105.228 31.2763 102.402 29.9739 100.088 29.9739C95.4631 29.9739 92.119 32.682 92.119 37.1717C92.119 45.5016 102.3 42.8579 102.3 47.5203C102.3 48.9577 100.904 50.2272 99.3059 50.2272C96.785 50.2272 95.9678 48.9954 94.8101 47.6918L91.7116 50.9131C93.6938 53.3452 96.1381 54.5807 99.0651 54.5807C103.459 54.5807 106.993 51.8397 106.993 47.5543C106.993 38.3075 96.8105 41.181 96.8105 37.1717M159.802 50.6455C157.284 50.6455 156.567 49.556 156.567 47.8875V40.5H160.483V36.757H156.567V31.8186L152.245 33.7582V48.8057C152.245 52.6545 154.901 54.5941 158.542 54.5941C159.114 54.6038 159.685 54.5576 160.247 54.4579L161.301 50.5762C160.826 50.6091 160.28 50.6419 159.802 50.6419M81.4603 36.2086C79.3492 36.2086 77.8754 36.8215 76.4502 38.2187V30.121H72.1818V45.1308C72.1818 50.7489 76.2434 54.5989 80.8085 54.5989C85.8721 54.5989 90.3265 50.6808 90.3265 45.4056C90.3265 40.196 86.2272 36.2122 81.4603 36.2122M81.4336 50.3026C80.7974 50.3026 80.1675 50.1773 79.5798 49.9339C78.9921 49.6904 78.458 49.3336 78.0082 48.8838C77.5584 48.434 77.2016 47.9 76.9581 47.3123C76.7147 46.7245 76.5894 46.0946 76.5894 45.4585C76.5894 44.8223 76.7147 44.1924 76.9581 43.6047C77.2016 43.017 77.5584 42.483 78.0082 42.0332C78.458 41.5833 78.9921 41.2265 79.5798 40.9831C80.1675 40.7396 80.7974 40.6143 81.4336 40.6143C82.7183 40.6143 83.9504 41.1247 84.8589 42.0332C85.7673 42.9416 86.2777 44.1737 86.2777 45.4585C86.2777 46.7432 85.7673 47.9754 84.8589 48.8838C83.9504 49.7923 82.7183 50.3026 81.4336 50.3026ZM127.816 45.1818C127.816 39.8969 123.372 35.9885 118.298 35.9885C113.734 35.9885 109.671 39.8373 109.671 45.4567V60.4749H113.94V52.3663C115.363 53.7611 116.839 54.3764 118.948 54.3764C123.714 54.3764 127.816 50.3926 127.816 45.1818ZM123.774 45.1283C123.774 46.4131 123.264 47.6452 122.355 48.5536C121.447 49.4621 120.215 49.9725 118.93 49.9725C117.645 49.9725 116.413 49.4621 115.505 48.5536C114.596 47.6452 114.086 46.4131 114.086 45.1283C114.086 43.8436 114.596 42.6114 115.505 41.703C116.413 40.7945 117.645 40.2842 118.93 40.2842C120.215 40.2842 121.447 40.7945 122.355 41.703C123.264 42.6114 123.774 43.8436 123.774 45.1283Z" fill="#2D1A0B"></path><path d="M141.609 35.7818V31.4928C142.175 31.2279 142.655 30.8075 142.992 30.2804C143.33 29.7534 143.51 29.1415 143.513 28.5159V28.4174C143.513 26.5933 142.034 25.1146 140.21 25.1146H140.112C139.236 25.1146 138.396 25.4626 137.776 26.0819C137.157 26.7013 136.809 27.5414 136.809 28.4174V28.5159C136.812 29.1415 136.992 29.7534 137.329 30.2804C137.667 30.8075 138.146 31.2279 138.713 31.4928V35.7818C137.084 36.0312 135.55 36.7066 134.266 37.7396L122.503 28.5779C122.587 28.2751 122.631 27.9638 122.636 27.6513C122.637 26.9152 122.42 26.1952 122.013 25.5824C121.605 24.9697 121.024 24.4916 120.345 24.2087C119.665 23.9258 118.917 23.8508 118.195 23.9931C117.473 24.1355 116.809 24.4888 116.288 25.0084C115.766 25.5281 115.411 26.1906 115.266 26.9124C115.122 27.6341 115.194 28.3825 115.475 29.0629C115.755 29.7434 116.232 30.3253 116.843 30.7351C117.455 31.1449 118.174 31.3641 118.91 31.3651C119.554 31.3621 120.186 31.1901 120.742 30.8665L132.325 39.8799C131.285 41.4518 130.742 43.3008 130.768 45.1858C130.793 47.0707 131.386 48.9043 132.469 50.4474L128.946 53.9715C128.661 53.8804 128.364 53.8321 128.066 53.828C127.461 53.8285 126.871 54.0081 126.369 54.344C125.866 54.68 125.475 55.1573 125.244 55.7156C125.013 56.2739 124.953 56.8882 125.071 57.4807C125.189 58.0733 125.48 58.6176 125.907 59.0448C126.334 59.4721 126.879 59.7631 127.471 59.881C128.064 59.999 128.678 59.9387 129.236 59.7077C129.795 59.4767 130.272 59.0854 130.608 58.5832C130.944 58.0811 131.123 57.4906 131.124 56.8864C131.12 56.5874 131.072 56.2907 130.98 56.006L134.466 52.5195C135.602 53.3945 136.924 53.9977 138.329 54.2829C139.735 54.5682 141.187 54.5279 142.575 54.1652C143.963 53.8025 145.249 53.1269 146.335 52.1903C147.421 51.2537 148.279 50.0809 148.842 48.7617C149.405 47.4426 149.658 46.012 149.583 44.5797C149.508 43.1474 149.106 41.7513 148.408 40.4984C147.709 39.2456 146.734 38.1691 145.555 37.3515C144.377 36.534 143.027 35.997 141.609 35.7818ZM140.164 49.888C139.52 49.9057 138.879 49.7942 138.279 49.5599C137.678 49.3257 137.131 48.9735 136.669 48.5242C136.207 48.0748 135.84 47.5375 135.59 46.9439C135.339 46.3503 135.21 45.7125 135.21 45.0682C135.21 44.4238 135.339 43.786 135.59 43.1924C135.84 42.5988 136.207 42.0615 136.669 41.6122C137.131 41.1629 137.678 40.8107 138.279 40.5764C138.879 40.3422 139.52 40.2306 140.164 40.2484C141.412 40.2921 142.595 40.8186 143.463 41.7169C144.331 42.6153 144.816 43.8155 144.817 45.0646C144.818 46.3138 144.333 47.5144 143.466 48.4136C142.599 49.3129 141.417 49.8406 140.169 49.8856" fill="#2D1A0B"></path></svg>