<svg xmlns="http://www.w3.org/2000/svg" width="194" height="85" viewBox="0 0 194 85" fill="none"><path fill-rule="evenodd" clip-rule="evenodd" d="M46.787 37.0816C46.7418 47.831 46.7353 48.0247 46.3959 48.7583C45.6305 50.4131 44.0812 51.406 42.2712 51.4016C40.9234 51.3986 39.9166 50.9345 38.968 49.8795C38.1789 49.0018 37.8826 48.2035 37.8826 46.9559C37.8826 45.7092 38.1788 44.9102 38.965 44.0357C39.9069 42.9881 41.024 42.5106 42.4784 42.5335L43.5796 42.5509L43.5349 39.999L43.4902 37.4473L42.3781 37.3989C41.6511 37.3674 40.8137 37.4649 39.9605 37.6806C34.8053 38.9843 31.6934 44.1792 33.0024 49.2971C33.7101 52.064 35.559 54.3508 38.0451 55.5339C39.6554 56.3001 40.6991 56.5467 42.3198 56.5432C46.6883 56.5343 50.6179 53.4267 51.6165 49.1914C51.8042 48.3948 51.8567 46.9003 51.8585 42.2829C51.8598 39.0423 51.9118 36.3908 51.9741 36.3908C52.0363 36.3908 52.7294 36.7226 53.5143 37.128C55.1252 37.9598 57.0201 38.5038 58.3073 38.5038H59.1752V36.0175V33.5311L58.128 33.3518C56.5983 33.0897 55.3986 32.4738 54.2271 31.3487C53.0153 30.1853 52.2951 28.8484 52.0178 27.248L51.8276 26.1509H49.3304H46.8331L46.787 37.0816ZM64.3765 35.7366V38.0081L67.0177 38.0528L69.659 38.0975L69.7011 46.834L69.743 55.5704H72.3409H74.9388L74.9807 46.834L75.0228 38.0975L77.1694 38.0522L79.3159 38.007L79.9802 35.9391C80.3455 34.802 80.6756 33.7801 80.7136 33.6683C80.7682 33.5076 79.0707 33.4651 72.5797 33.4651H64.3765V35.7366ZM83.4667 33.6847C81.9479 34.3739 81.4647 36.4315 82.5254 37.6921C83.6983 39.0861 85.5901 38.9884 86.7106 37.4761C86.9647 37.1333 87.0507 36.7765 87.0507 36.0658C87.0507 35.0457 86.784 34.5179 85.9557 33.8994C85.4176 33.4978 84.1246 33.3863 83.4667 33.6847ZM89.4075 44.5178V55.5704H92.0081H94.6087V52.6792V49.7881L95.4019 49.0068L96.195 48.2256L98.6799 51.898L101.165 55.5704H103.99C106.293 55.5704 106.791 55.5306 106.685 55.3549C106.614 55.2364 104.953 52.8473 102.994 50.0456L99.4332 44.9518L99.9061 44.5518C100.166 44.3317 101.634 42.9176 103.169 41.4091L105.959 38.6664H102.911H99.8623L97.2355 41.2004L94.6087 43.7345V38.5997V33.4651H92.0081H89.4075V44.5178ZM108.099 35.7366V38.0081L110.741 38.0528L113.382 38.0975L113.424 46.834L113.466 55.5704H116.065H118.665V46.8777V38.1849L119.03 38.0998C119.231 38.0528 120.308 37.9966 121.422 37.9748L123.448 37.935L124.135 35.822C124.513 34.6598 124.827 33.654 124.832 33.587C124.837 33.5201 121.074 33.4651 116.47 33.4651H108.099V35.7366ZM143.37 44.5178V55.5704H145.971H148.572V52.6792V49.7881L149.365 49.0068L150.158 48.2256L152.643 51.898L155.128 55.5704H157.954C160.007 55.5704 160.75 55.5204 160.668 55.3876C160.512 55.1352 153.764 45.4548 153.588 45.2318C153.496 45.114 154.442 44.0677 156.332 42.1982C157.919 40.6286 159.401 39.1943 159.624 39.0108L160.031 38.6773L156.942 38.6726L153.854 38.668L151.213 41.2L148.572 43.7321V38.5986V33.4651H145.971H143.37V44.5178ZM130.453 37.7019C127.104 38.262 124.166 40.9649 123.302 44.2808C123.165 44.8063 123.053 45.8753 123.053 46.6565C123.053 51.4611 126.688 55.2772 131.505 55.5292C134.226 55.6715 136.472 54.8296 138.332 52.9698C140.161 51.1404 141.003 49.0785 140.986 46.4683C140.969 43.8561 140.068 41.8435 138.086 39.989C136.013 38.0497 133.277 37.2299 130.453 37.7019ZM81.9307 48.0937V55.5704H84.5313H87.1319V48.0937V40.6169H84.5313H81.9307V48.0937ZM134.175 42.7063C136.161 43.8218 137.01 46.2662 136.138 48.3602C136.021 48.6408 135.644 49.1825 135.3 49.564C133.133 51.9673 129.266 51.3308 127.911 48.348C127.565 47.5843 127.506 45.9891 127.794 45.1515C128.702 42.515 131.752 41.346 134.175 42.7063Z" fill="#2D1A0B"></path></svg>